<svg id="Capa_1" enable-background="new 0 0 512 512" height="512" viewBox="0 0 512 512" width="512" xmlns="http://www.w3.org/2000/svg"><g><circle cx="356" cy="166" r="15"/><path d="m437.02 74.981c-48.353-48.352-112.64-74.981-181.02-74.981s-132.667 26.629-181.019 74.981-74.981 112.638-74.981 181.019c0 45.934 12.43 90.908 36.011 130.533l-35.241 105.724c-1.797 5.39-.394 11.332 3.624 15.35 2.859 2.859 6.692 4.395 10.608 4.394 1.586 0 3.187-.252 4.741-.77l105.724-35.241c39.626 23.58 84.6 36.01 130.533 36.01 68.38 0 132.667-26.629 181.02-74.98 48.351-48.353 74.98-112.64 74.98-181.02 0-68.381-26.629-132.668-74.98-181.019zm-321.626 96.981c27.904-27.904 73.309-27.904 101.213 0 5.858 5.857 5.858 15.355 0 21.213-2.929 2.929-6.768 4.394-10.607 4.394s-7.678-1.465-10.606-4.394c-16.208-16.207-42.579-16.207-58.787 0-5.858 5.858-15.354 5.858-21.213 0-5.858-5.857-5.858-15.356 0-21.213zm285.203 127.492c-7.583 32.043-25.956 61.086-51.733 81.78-26.21 21.04-59.189 32.628-92.863 32.628s-66.653-11.588-92.863-32.628c-25.778-20.694-44.15-49.737-51.733-81.78-1.908-8.062 3.081-16.144 11.142-18.051 8.066-1.911 16.144 3.082 18.051 11.143 12.724 53.766 60.18 91.316 115.403 91.316s102.679-37.551 115.403-91.316c1.908-8.063 9.985-13.059 18.051-11.143 8.061 1.908 13.05 9.99 11.142 18.051zm-44.597-88.454c-24.813 0-45-20.187-45-45s20.187-45 45-45 45 20.187 45 45-20.187 45-45 45z"/></g></svg>